# xmcd
#
# Track frame offsets:
#	182
#	15905
#	35985
#
# Disc length: 700 seconds
#
# Revision: 1
# Processed by: cddbd v1.5.2PL0 Copyright (c) Steve Scherf et al.
# Submitted via: EasyCDDAExtractor 11.1.0.1
#
DISCID=1b02ba03
DTITLE=Trisha Yearwood - promo
DYEAR=1900
DGENRE=country
TTITLE0=Where yur road leads
TTITLE1=Love wouldn't lie to me
TTITLE2=I'll still love you more
EXTD=
EXTT0=
EXTT1=
EXTT2=
PLAYORDER=
